<svg width="222" height="181" viewBox="0 0 222 181" fill="none" xmlns="http://www.w3.org/2000/svg">
<path d="M218.363 102.865L222 109.099C207.453 132.304 189.963 149.968 169.528 162.09C149.094 174.559 129.699 180.793 111.342 180.793C74.2831 180.793 49.6925 164.861 37.5704 132.997C37.5704 131.265 41.5534 125.551 49.5193 115.853C57.4853 106.155 62.6805 101.306 65.1049 101.306C67.8757 101.306 69.4343 102.172 69.7806 103.904C71.8587 114.987 77.5734 126.763 86.9248 139.231C96.6225 151.7 105.454 157.934 113.42 157.934C125.889 157.934 132.296 154.471 132.643 147.544C132.643 136.807 120.001 120.529 94.7176 98.7088C85.3662 90.3965 76.7076 79.8329 68.7416 67.0181C61.122 53.8569 57.3121 40.3494 57.3121 26.4956C57.3121 23.7248 57.8317 21.8198 58.8707 20.7808C74.11 6.92694 84.154 0 89.0029 0C92.8127 0 94.7176 2.94398 94.7176 8.83188C95.0639 21.6467 100.432 34.981 110.823 48.8349C121.559 62.3424 131.95 75.3304 141.994 87.7989C152.384 100.267 157.58 112.736 157.58 125.204C157.58 137.326 151.518 148.236 139.396 157.934C167.797 157.241 194.119 138.885 218.363 102.865Z" fill="#44DDAA"/>
<path d="M76.6436 6.76266H87.9147C87.9147 6.76266 65.2866 75.5165 47.3387 108.578C29.3908 141.64 6.76267 172.824 6.76267 172.824H0C0 172.824 19.2091 146.525 39.8246 93.1746C50.4165 65.7641 57.4827 23.6693 57.4827 23.6693L76.6436 6.76266Z" fill="#44DDAA"/>
</svg>
